<mxfile host="Electron" modified="2024-03-17T12:49:44.505Z" agent="Mozilla/5.0 (Windows NT 10.0; Win64; x64) AppleWebKit/537.36 (KHTML, like Gecko) draw.io/23.1.5 Chrome/120.0.6099.109 Electron/28.1.0 Safari/537.36" etag="3lsCAWHBI5G6-I6OVxLp" version="23.1.5" type="device">
  <diagram name="Pagina-1" id="ayMA1fdJRo0_A0mXSzPt">
    <mxGraphModel dx="407" dy="500" grid="1" gridSize="10" guides="1" tooltips="1" connect="1" arrows="1" fold="1" page="1" pageScale="1" pageWidth="827" pageHeight="1169" math="0" shadow="0">
      <root>
        <mxCell id="0" />
        <mxCell id="1" parent="0" />
        <mxCell id="PjzBMtUwAnBHMIuNrAa1-6" style="edgeStyle=orthogonalEdgeStyle;rounded=0;orthogonalLoop=1;jettySize=auto;html=1;entryX=0;entryY=0.5;entryDx=0;entryDy=0;" edge="1" parent="1" source="PjzBMtUwAnBHMIuNrAa1-1" target="PjzBMtUwAnBHMIuNrAa1-2">
          <mxGeometry relative="1" as="geometry" />
        </mxCell>
        <mxCell id="PjzBMtUwAnBHMIuNrAa1-7" style="edgeStyle=orthogonalEdgeStyle;rounded=0;orthogonalLoop=1;jettySize=auto;html=1;entryX=0;entryY=0.5;entryDx=0;entryDy=0;" edge="1" parent="1" source="PjzBMtUwAnBHMIuNrAa1-1" target="PjzBMtUwAnBHMIuNrAa1-4">
          <mxGeometry relative="1" as="geometry" />
        </mxCell>
        <mxCell id="PjzBMtUwAnBHMIuNrAa1-43" style="edgeStyle=orthogonalEdgeStyle;rounded=0;orthogonalLoop=1;jettySize=auto;html=1;entryX=0.5;entryY=0;entryDx=0;entryDy=0;endArrow=doubleBlock;endFill=1;" edge="1" parent="1" source="PjzBMtUwAnBHMIuNrAa1-1" target="PjzBMtUwAnBHMIuNrAa1-41">
          <mxGeometry relative="1" as="geometry">
            <Array as="points">
              <mxPoint x="215" y="350" />
              <mxPoint x="215" y="350" />
            </Array>
          </mxGeometry>
        </mxCell>
        <mxCell id="PjzBMtUwAnBHMIuNrAa1-69" style="edgeStyle=orthogonalEdgeStyle;rounded=0;orthogonalLoop=1;jettySize=auto;html=1;entryX=0.5;entryY=1;entryDx=0;entryDy=0;endArrow=doubleBlock;endFill=1;" edge="1" parent="1" source="PjzBMtUwAnBHMIuNrAa1-1" target="PjzBMtUwAnBHMIuNrAa1-67">
          <mxGeometry relative="1" as="geometry" />
        </mxCell>
        <mxCell id="PjzBMtUwAnBHMIuNrAa1-72" value="" style="edgeStyle=orthogonalEdgeStyle;rounded=0;orthogonalLoop=1;jettySize=auto;html=1;endArrow=doubleBlock;endFill=1;" edge="1" parent="1" source="PjzBMtUwAnBHMIuNrAa1-1" target="PjzBMtUwAnBHMIuNrAa1-71">
          <mxGeometry relative="1" as="geometry" />
        </mxCell>
        <mxCell id="PjzBMtUwAnBHMIuNrAa1-1" value="VendingMachine" style="rounded=0;whiteSpace=wrap;html=1;" vertex="1" parent="1">
          <mxGeometry x="180" y="260" width="120" height="60" as="geometry" />
        </mxCell>
        <mxCell id="PjzBMtUwAnBHMIuNrAa1-2" value="" style="ellipse;whiteSpace=wrap;html=1;aspect=fixed;" vertex="1" parent="1">
          <mxGeometry x="270" y="360" width="20" height="20" as="geometry" />
        </mxCell>
        <mxCell id="PjzBMtUwAnBHMIuNrAa1-3" value="posizione" style="text;html=1;align=center;verticalAlign=middle;whiteSpace=wrap;rounded=0;" vertex="1" parent="1">
          <mxGeometry x="295" y="355" width="50" height="30" as="geometry" />
        </mxCell>
        <mxCell id="PjzBMtUwAnBHMIuNrAa1-4" value="" style="ellipse;whiteSpace=wrap;html=1;aspect=fixed;" vertex="1" parent="1">
          <mxGeometry x="270" y="385" width="20" height="20" as="geometry" />
        </mxCell>
        <mxCell id="PjzBMtUwAnBHMIuNrAa1-5" value="modello" style="text;html=1;align=center;verticalAlign=middle;whiteSpace=wrap;rounded=0;" vertex="1" parent="1">
          <mxGeometry x="295" y="380" width="40" height="30" as="geometry" />
        </mxCell>
        <mxCell id="PjzBMtUwAnBHMIuNrAa1-9" style="edgeStyle=orthogonalEdgeStyle;rounded=0;orthogonalLoop=1;jettySize=auto;html=1;entryX=0;entryY=0.5;entryDx=0;entryDy=0;" edge="1" parent="1" source="PjzBMtUwAnBHMIuNrAa1-11" target="PjzBMtUwAnBHMIuNrAa1-12">
          <mxGeometry relative="1" as="geometry" />
        </mxCell>
        <mxCell id="PjzBMtUwAnBHMIuNrAa1-10" style="edgeStyle=orthogonalEdgeStyle;rounded=0;orthogonalLoop=1;jettySize=auto;html=1;entryX=0;entryY=0.5;entryDx=0;entryDy=0;" edge="1" parent="1" source="PjzBMtUwAnBHMIuNrAa1-11" target="PjzBMtUwAnBHMIuNrAa1-14">
          <mxGeometry relative="1" as="geometry" />
        </mxCell>
        <mxCell id="PjzBMtUwAnBHMIuNrAa1-20" style="edgeStyle=orthogonalEdgeStyle;rounded=0;orthogonalLoop=1;jettySize=auto;html=1;entryX=0;entryY=0.5;entryDx=0;entryDy=0;" edge="1" parent="1" source="PjzBMtUwAnBHMIuNrAa1-11" target="PjzBMtUwAnBHMIuNrAa1-16">
          <mxGeometry relative="1" as="geometry" />
        </mxCell>
        <mxCell id="PjzBMtUwAnBHMIuNrAa1-21" style="edgeStyle=orthogonalEdgeStyle;rounded=0;orthogonalLoop=1;jettySize=auto;html=1;entryX=0;entryY=0.5;entryDx=0;entryDy=0;" edge="1" parent="1" source="PjzBMtUwAnBHMIuNrAa1-11" target="PjzBMtUwAnBHMIuNrAa1-18">
          <mxGeometry relative="1" as="geometry" />
        </mxCell>
        <mxCell id="PjzBMtUwAnBHMIuNrAa1-37" style="edgeStyle=orthogonalEdgeStyle;rounded=0;orthogonalLoop=1;jettySize=auto;html=1;entryX=0.5;entryY=0;entryDx=0;entryDy=0;endArrow=doubleBlock;endFill=1;" edge="1" parent="1" source="PjzBMtUwAnBHMIuNrAa1-11" target="PjzBMtUwAnBHMIuNrAa1-36">
          <mxGeometry relative="1" as="geometry">
            <Array as="points">
              <mxPoint x="500" y="340" />
              <mxPoint x="435" y="340" />
            </Array>
          </mxGeometry>
        </mxCell>
        <mxCell id="PjzBMtUwAnBHMIuNrAa1-74" style="edgeStyle=orthogonalEdgeStyle;rounded=0;orthogonalLoop=1;jettySize=auto;html=1;entryX=1;entryY=0.5;entryDx=0;entryDy=0;endArrow=classic;endFill=1;" edge="1" parent="1" source="PjzBMtUwAnBHMIuNrAa1-11" target="PjzBMtUwAnBHMIuNrAa1-71">
          <mxGeometry relative="1" as="geometry" />
        </mxCell>
        <mxCell id="PjzBMtUwAnBHMIuNrAa1-82" style="edgeStyle=orthogonalEdgeStyle;rounded=0;orthogonalLoop=1;jettySize=auto;html=1;entryX=0.5;entryY=1;entryDx=0;entryDy=0;endArrow=doubleBlock;endFill=1;" edge="1" parent="1" source="PjzBMtUwAnBHMIuNrAa1-11" target="PjzBMtUwAnBHMIuNrAa1-76">
          <mxGeometry relative="1" as="geometry" />
        </mxCell>
        <mxCell id="PjzBMtUwAnBHMIuNrAa1-11" value="Product" style="rounded=0;whiteSpace=wrap;html=1;" vertex="1" parent="1">
          <mxGeometry x="480" y="260" width="120" height="60" as="geometry" />
        </mxCell>
        <mxCell id="PjzBMtUwAnBHMIuNrAa1-12" value="" style="ellipse;whiteSpace=wrap;html=1;aspect=fixed;" vertex="1" parent="1">
          <mxGeometry x="570" y="360" width="20" height="20" as="geometry" />
        </mxCell>
        <mxCell id="PjzBMtUwAnBHMIuNrAa1-13" value="prod_disponibili" style="text;html=1;align=center;verticalAlign=middle;whiteSpace=wrap;rounded=0;" vertex="1" parent="1">
          <mxGeometry x="595" y="355" width="85" height="30" as="geometry" />
        </mxCell>
        <mxCell id="PjzBMtUwAnBHMIuNrAa1-14" value="" style="ellipse;whiteSpace=wrap;html=1;aspect=fixed;" vertex="1" parent="1">
          <mxGeometry x="570" y="385" width="20" height="20" as="geometry" />
        </mxCell>
        <mxCell id="PjzBMtUwAnBHMIuNrAa1-15" value="nome" style="text;html=1;align=center;verticalAlign=middle;whiteSpace=wrap;rounded=0;" vertex="1" parent="1">
          <mxGeometry x="595" y="380" width="35" height="30" as="geometry" />
        </mxCell>
        <mxCell id="PjzBMtUwAnBHMIuNrAa1-16" value="" style="ellipse;whiteSpace=wrap;html=1;aspect=fixed;" vertex="1" parent="1">
          <mxGeometry x="570" y="410" width="20" height="20" as="geometry" />
        </mxCell>
        <mxCell id="PjzBMtUwAnBHMIuNrAa1-17" value="prezzo" style="text;html=1;align=center;verticalAlign=middle;whiteSpace=wrap;rounded=0;" vertex="1" parent="1">
          <mxGeometry x="595" y="410" width="35" height="30" as="geometry" />
        </mxCell>
        <mxCell id="PjzBMtUwAnBHMIuNrAa1-18" value="" style="ellipse;whiteSpace=wrap;html=1;aspect=fixed;" vertex="1" parent="1">
          <mxGeometry x="570" y="435" width="20" height="20" as="geometry" />
        </mxCell>
        <mxCell id="PjzBMtUwAnBHMIuNrAa1-19" value="quantita_stock" style="text;html=1;align=center;verticalAlign=middle;whiteSpace=wrap;rounded=0;" vertex="1" parent="1">
          <mxGeometry x="595" y="430" width="75" height="30" as="geometry" />
        </mxCell>
        <mxCell id="PjzBMtUwAnBHMIuNrAa1-22" style="edgeStyle=orthogonalEdgeStyle;rounded=0;orthogonalLoop=1;jettySize=auto;html=1;entryX=0;entryY=0.5;entryDx=0;entryDy=0;" edge="1" parent="1" source="PjzBMtUwAnBHMIuNrAa1-26" target="PjzBMtUwAnBHMIuNrAa1-27">
          <mxGeometry relative="1" as="geometry" />
        </mxCell>
        <mxCell id="PjzBMtUwAnBHMIuNrAa1-23" style="edgeStyle=orthogonalEdgeStyle;rounded=0;orthogonalLoop=1;jettySize=auto;html=1;entryX=0;entryY=0.5;entryDx=0;entryDy=0;" edge="1" parent="1" source="PjzBMtUwAnBHMIuNrAa1-26" target="PjzBMtUwAnBHMIuNrAa1-29">
          <mxGeometry relative="1" as="geometry" />
        </mxCell>
        <mxCell id="PjzBMtUwAnBHMIuNrAa1-35" style="edgeStyle=orthogonalEdgeStyle;rounded=0;orthogonalLoop=1;jettySize=auto;html=1;" edge="1" parent="1" source="PjzBMtUwAnBHMIuNrAa1-26" target="PjzBMtUwAnBHMIuNrAa1-36">
          <mxGeometry relative="1" as="geometry">
            <mxPoint x="430" y="460" as="targetPoint" />
          </mxGeometry>
        </mxCell>
        <mxCell id="PjzBMtUwAnBHMIuNrAa1-42" style="edgeStyle=orthogonalEdgeStyle;rounded=0;orthogonalLoop=1;jettySize=auto;html=1;entryX=0.5;entryY=1;entryDx=0;entryDy=0;" edge="1" parent="1" source="PjzBMtUwAnBHMIuNrAa1-26" target="PjzBMtUwAnBHMIuNrAa1-41">
          <mxGeometry relative="1" as="geometry" />
        </mxCell>
        <mxCell id="PjzBMtUwAnBHMIuNrAa1-26" value="Transaction" style="rounded=0;whiteSpace=wrap;html=1;" vertex="1" parent="1">
          <mxGeometry x="180" y="510" width="120" height="60" as="geometry" />
        </mxCell>
        <mxCell id="PjzBMtUwAnBHMIuNrAa1-27" value="" style="ellipse;whiteSpace=wrap;html=1;aspect=fixed;" vertex="1" parent="1">
          <mxGeometry x="270" y="610" width="20" height="20" as="geometry" />
        </mxCell>
        <mxCell id="PjzBMtUwAnBHMIuNrAa1-28" value="data_ora" style="text;html=1;align=center;verticalAlign=middle;whiteSpace=wrap;rounded=0;" vertex="1" parent="1">
          <mxGeometry x="295" y="605" width="45" height="30" as="geometry" />
        </mxCell>
        <mxCell id="PjzBMtUwAnBHMIuNrAa1-29" value="" style="ellipse;whiteSpace=wrap;html=1;aspect=fixed;" vertex="1" parent="1">
          <mxGeometry x="270" y="635" width="20" height="20" as="geometry" />
        </mxCell>
        <mxCell id="PjzBMtUwAnBHMIuNrAa1-30" value="importo" style="text;html=1;align=center;verticalAlign=middle;whiteSpace=wrap;rounded=0;" vertex="1" parent="1">
          <mxGeometry x="295" y="630" width="35" height="30" as="geometry" />
        </mxCell>
        <mxCell id="PjzBMtUwAnBHMIuNrAa1-36" value="buy" style="rhombus;whiteSpace=wrap;html=1;" vertex="1" parent="1">
          <mxGeometry x="400" y="390" width="70" height="60" as="geometry" />
        </mxCell>
        <mxCell id="PjzBMtUwAnBHMIuNrAa1-41" value="takes" style="rhombus;whiteSpace=wrap;html=1;" vertex="1" parent="1">
          <mxGeometry x="180" y="410" width="70" height="60" as="geometry" />
        </mxCell>
        <mxCell id="PjzBMtUwAnBHMIuNrAa1-44" value="" style="endArrow=none;html=1;rounded=0;" edge="1" parent="1">
          <mxGeometry width="50" height="50" relative="1" as="geometry">
            <mxPoint x="200" y="380" as="sourcePoint" />
            <mxPoint x="230" y="380" as="targetPoint" />
          </mxGeometry>
        </mxCell>
        <mxCell id="PjzBMtUwAnBHMIuNrAa1-45" value="" style="endArrow=none;html=1;rounded=0;" edge="1" parent="1">
          <mxGeometry width="50" height="50" relative="1" as="geometry">
            <mxPoint x="450" y="350" as="sourcePoint" />
            <mxPoint x="420" y="350" as="targetPoint" />
          </mxGeometry>
        </mxCell>
        <mxCell id="PjzBMtUwAnBHMIuNrAa1-51" style="edgeStyle=orthogonalEdgeStyle;rounded=0;orthogonalLoop=1;jettySize=auto;html=1;entryX=0;entryY=0.5;entryDx=0;entryDy=0;" edge="1" parent="1" source="PjzBMtUwAnBHMIuNrAa1-53" target="PjzBMtUwAnBHMIuNrAa1-54">
          <mxGeometry relative="1" as="geometry" />
        </mxCell>
        <mxCell id="PjzBMtUwAnBHMIuNrAa1-52" style="edgeStyle=orthogonalEdgeStyle;rounded=0;orthogonalLoop=1;jettySize=auto;html=1;entryX=0;entryY=0.5;entryDx=0;entryDy=0;" edge="1" parent="1" source="PjzBMtUwAnBHMIuNrAa1-53" target="PjzBMtUwAnBHMIuNrAa1-56">
          <mxGeometry relative="1" as="geometry" />
        </mxCell>
        <mxCell id="PjzBMtUwAnBHMIuNrAa1-79" value="" style="edgeStyle=orthogonalEdgeStyle;rounded=0;orthogonalLoop=1;jettySize=auto;html=1;endArrow=doubleBlock;endFill=1;entryX=0.5;entryY=0;entryDx=0;entryDy=0;" edge="1" parent="1" source="PjzBMtUwAnBHMIuNrAa1-53" target="PjzBMtUwAnBHMIuNrAa1-76">
          <mxGeometry relative="1" as="geometry">
            <mxPoint x="429.9999999999998" y="65" as="targetPoint" />
            <Array as="points">
              <mxPoint x="530" y="120" />
              <mxPoint x="492" y="120" />
            </Array>
          </mxGeometry>
        </mxCell>
        <mxCell id="PjzBMtUwAnBHMIuNrAa1-53" value="Supplier" style="rounded=0;whiteSpace=wrap;html=1;" vertex="1" parent="1">
          <mxGeometry x="500" y="35" width="120" height="60" as="geometry" />
        </mxCell>
        <mxCell id="PjzBMtUwAnBHMIuNrAa1-54" value="" style="ellipse;whiteSpace=wrap;html=1;aspect=fixed;" vertex="1" parent="1">
          <mxGeometry x="590" y="135" width="20" height="20" as="geometry" />
        </mxCell>
        <mxCell id="PjzBMtUwAnBHMIuNrAa1-55" value="nome" style="text;html=1;align=center;verticalAlign=middle;whiteSpace=wrap;rounded=0;" vertex="1" parent="1">
          <mxGeometry x="610" y="130" width="35" height="30" as="geometry" />
        </mxCell>
        <mxCell id="PjzBMtUwAnBHMIuNrAa1-56" value="" style="ellipse;whiteSpace=wrap;html=1;aspect=fixed;" vertex="1" parent="1">
          <mxGeometry x="590" y="160" width="20" height="20" as="geometry" />
        </mxCell>
        <mxCell id="PjzBMtUwAnBHMIuNrAa1-57" value="dettagli_contatto" style="text;html=1;align=center;verticalAlign=middle;whiteSpace=wrap;rounded=0;" vertex="1" parent="1">
          <mxGeometry x="610" y="155" width="90" height="30" as="geometry" />
        </mxCell>
        <mxCell id="PjzBMtUwAnBHMIuNrAa1-58" style="edgeStyle=orthogonalEdgeStyle;rounded=0;orthogonalLoop=1;jettySize=auto;html=1;entryX=0;entryY=0.5;entryDx=0;entryDy=0;" edge="1" parent="1" source="PjzBMtUwAnBHMIuNrAa1-60" target="PjzBMtUwAnBHMIuNrAa1-61">
          <mxGeometry relative="1" as="geometry" />
        </mxCell>
        <mxCell id="PjzBMtUwAnBHMIuNrAa1-59" style="edgeStyle=orthogonalEdgeStyle;rounded=0;orthogonalLoop=1;jettySize=auto;html=1;entryX=0;entryY=0.5;entryDx=0;entryDy=0;" edge="1" parent="1" source="PjzBMtUwAnBHMIuNrAa1-60" target="PjzBMtUwAnBHMIuNrAa1-63">
          <mxGeometry relative="1" as="geometry" />
        </mxCell>
        <mxCell id="PjzBMtUwAnBHMIuNrAa1-60" value="Maintenance" style="rounded=0;whiteSpace=wrap;html=1;" vertex="1" parent="1">
          <mxGeometry x="180" y="40" width="120" height="60" as="geometry" />
        </mxCell>
        <mxCell id="PjzBMtUwAnBHMIuNrAa1-61" value="" style="ellipse;whiteSpace=wrap;html=1;aspect=fixed;" vertex="1" parent="1">
          <mxGeometry x="277.5" y="140" width="20" height="20" as="geometry" />
        </mxCell>
        <mxCell id="PjzBMtUwAnBHMIuNrAa1-62" value="data" style="text;html=1;align=center;verticalAlign=middle;whiteSpace=wrap;rounded=0;" vertex="1" parent="1">
          <mxGeometry x="297.5" y="135" width="35" height="30" as="geometry" />
        </mxCell>
        <mxCell id="PjzBMtUwAnBHMIuNrAa1-63" value="" style="ellipse;whiteSpace=wrap;html=1;aspect=fixed;" vertex="1" parent="1">
          <mxGeometry x="277.5" y="165" width="20" height="20" as="geometry" />
        </mxCell>
        <mxCell id="PjzBMtUwAnBHMIuNrAa1-64" value="descrizione" style="text;html=1;align=center;verticalAlign=middle;whiteSpace=wrap;rounded=0;" vertex="1" parent="1">
          <mxGeometry x="302.5" y="160" width="60" height="30" as="geometry" />
        </mxCell>
        <mxCell id="PjzBMtUwAnBHMIuNrAa1-67" value="log" style="rhombus;whiteSpace=wrap;html=1;" vertex="1" parent="1">
          <mxGeometry x="140" y="145" width="70" height="60" as="geometry" />
        </mxCell>
        <mxCell id="PjzBMtUwAnBHMIuNrAa1-68" style="edgeStyle=orthogonalEdgeStyle;rounded=0;orthogonalLoop=1;jettySize=auto;html=1;entryX=0.5;entryY=0;entryDx=0;entryDy=0;endArrow=classic;endFill=1;" edge="1" parent="1" source="PjzBMtUwAnBHMIuNrAa1-60" target="PjzBMtUwAnBHMIuNrAa1-67">
          <mxGeometry relative="1" as="geometry">
            <Array as="points">
              <mxPoint x="210" y="120" />
              <mxPoint x="175" y="120" />
            </Array>
          </mxGeometry>
        </mxCell>
        <mxCell id="PjzBMtUwAnBHMIuNrAa1-70" value="" style="endArrow=none;html=1;rounded=0;" edge="1" parent="1">
          <mxGeometry width="50" height="50" relative="1" as="geometry">
            <mxPoint x="225" y="240" as="sourcePoint" />
            <mxPoint x="255" y="240" as="targetPoint" />
          </mxGeometry>
        </mxCell>
        <mxCell id="PjzBMtUwAnBHMIuNrAa1-71" value="contains" style="rhombus;whiteSpace=wrap;html=1;rounded=0;" vertex="1" parent="1">
          <mxGeometry x="349" y="260" width="65" height="60" as="geometry" />
        </mxCell>
        <mxCell id="PjzBMtUwAnBHMIuNrAa1-73" value="" style="endArrow=none;html=1;rounded=0;" edge="1" parent="1">
          <mxGeometry width="50" height="50" relative="1" as="geometry">
            <mxPoint x="320" y="300" as="sourcePoint" />
            <mxPoint x="320" y="280" as="targetPoint" />
          </mxGeometry>
        </mxCell>
        <mxCell id="PjzBMtUwAnBHMIuNrAa1-76" value="provide" style="rhombus;whiteSpace=wrap;html=1;rounded=0;" vertex="1" parent="1">
          <mxGeometry x="460" y="145" width="65" height="60" as="geometry" />
        </mxCell>
        <mxCell id="PjzBMtUwAnBHMIuNrAa1-80" value="" style="endArrow=none;html=1;rounded=0;" edge="1" parent="1">
          <mxGeometry width="50" height="50" relative="1" as="geometry">
            <mxPoint x="510" y="110" as="sourcePoint" />
            <mxPoint x="510" y="130" as="targetPoint" />
          </mxGeometry>
        </mxCell>
        <mxCell id="PjzBMtUwAnBHMIuNrAa1-83" value="" style="endArrow=none;html=1;rounded=0;" edge="1" parent="1">
          <mxGeometry width="50" height="50" relative="1" as="geometry">
            <mxPoint x="530" y="250" as="sourcePoint" />
            <mxPoint x="550" y="250" as="targetPoint" />
          </mxGeometry>
        </mxCell>
        <mxCell id="PjzBMtUwAnBHMIuNrAa1-87" value="" style="endArrow=none;html=1;rounded=0;" edge="1" parent="1">
          <mxGeometry width="50" height="50" relative="1" as="geometry">
            <mxPoint x="250" y="185" as="sourcePoint" />
            <mxPoint x="250" y="165" as="targetPoint" />
          </mxGeometry>
        </mxCell>
      </root>
    </mxGraphModel>
  </diagram>
</mxfile>
